# xmcd
#
# Track frame offsets: 
#        150
#        16693
#        36940
#        56609
#        75829
#        92868
#        111662
#        133308
#        148836
#        169372
#
# Disc length: 2418 seconds
#
# Revision: 0
# Processed by: cddbd v1.4PL0 Copyright (c) Steve Scherf et al.
# Submitted via: ExactAudioCopy v0.90b4
#
DISCID=8a09700a
DTITLE=Lisa Sanders - Life Takes You Flying
DYEAR=1999
DGENRE=
TTITLE0=Come On And Dance
TTITLE1=This House
TTITLE2=Queen Of My Castle
TTITLE3=Life Takes You Flying
TTITLE4=Time Was On Our Side
TTITLE5=Head Over Heels
TTITLE6=I Believe
TTITLE7=Sight Unseen
TTITLE8=Run Don't Hide
TTITLE9=When You're Angry
EXTD=
EXTT0=
EXTT1=
EXTT2=
EXTT3=
EXTT4=
EXTT5=
EXTT6=
EXTT7=
EXTT8=
EXTT9=
PLAYORDER=
